<mxfile host="app.diagrams.net" agent="Mozilla/5.0 (Macintosh; Intel Mac OS X 10_15_7) AppleWebKit/537.36 (KHTML, like Gecko) Chrome/130.0.0.0 Safari/537.36 Edg/130.0.0.0" version="24.8.4">
  <diagram name="第 1 页" id="0jiMUVteO30fLh8gYth0">
    <mxGraphModel dx="398" dy="-4440" grid="1" gridSize="10" guides="1" tooltips="1" connect="1" arrows="1" fold="1" page="1" pageScale="1" pageWidth="827" pageHeight="1169" math="0" shadow="0">
      <root>
        <mxCell id="0" />
        <mxCell id="1" parent="0" />
        <mxCell id="CcJlXv71uHXDPhzVcIDP-1" value="" style="rounded=0;whiteSpace=wrap;html=1;" parent="1" vertex="1">
          <mxGeometry x="159.55" y="4962.5" width="310.45" height="97.5" as="geometry" />
        </mxCell>
        <mxCell id="CcJlXv71uHXDPhzVcIDP-2" value="" style="rounded=0;whiteSpace=wrap;html=1;" parent="1" vertex="1">
          <mxGeometry x="164.55" y="5002.5" width="120" height="47.5" as="geometry" />
        </mxCell>
        <mxCell id="CcJlXv71uHXDPhzVcIDP-3" value="&lt;font face=&quot;Times New Roman&quot; style=&quot;font-size: 8px;&quot;&gt;req_co status&lt;/font&gt;" style="rounded=0;whiteSpace=wrap;html=1;" parent="1" vertex="1">
          <mxGeometry x="164.55000000000004" y="4982.5" width="50" height="20" as="geometry" />
        </mxCell>
        <mxCell id="CcJlXv71uHXDPhzVcIDP-4" value="&lt;span style=&quot;font-family: &amp;quot;Times New Roman&amp;quot;;&quot;&gt;&lt;font style=&quot;font-size: 8px;&quot;&gt;count&lt;/font&gt;&lt;/span&gt;" style="rounded=0;whiteSpace=wrap;html=1;" parent="1" vertex="1">
          <mxGeometry x="214.55000000000004" y="4982.5" width="30" height="20" as="geometry" />
        </mxCell>
        <mxCell id="CcJlXv71uHXDPhzVcIDP-5" value="&lt;span style=&quot;font-family: &amp;quot;Times New Roman&amp;quot;;&quot;&gt;&lt;font style=&quot;font-size: 8px;&quot;&gt;start&lt;/font&gt;&lt;/span&gt;" style="rounded=0;whiteSpace=wrap;html=1;" parent="1" vertex="1">
          <mxGeometry x="244.55" y="4982.5" width="20" height="20" as="geometry" />
        </mxCell>
        <mxCell id="CcJlXv71uHXDPhzVcIDP-6" value="&lt;font face=&quot;Times New Roman&quot; style=&quot;font-size: 8px;&quot;&gt;end&lt;/font&gt;" style="rounded=0;whiteSpace=wrap;html=1;" parent="1" vertex="1">
          <mxGeometry x="264.55" y="4982.5" width="20" height="20" as="geometry" />
        </mxCell>
        <mxCell id="CcJlXv71uHXDPhzVcIDP-7" value="&lt;font face=&quot;Times New Roman&quot; style=&quot;font-size: 8px;&quot;&gt;cid&lt;/font&gt;" style="rounded=0;whiteSpace=wrap;html=1;" parent="1" vertex="1">
          <mxGeometry x="164.55000000000004" y="5002.5" width="20" height="20" as="geometry" />
        </mxCell>
        <mxCell id="CcJlXv71uHXDPhzVcIDP-8" value="&lt;font face=&quot;Times New Roman&quot; style=&quot;font-size: 8px;&quot;&gt;msg info&lt;/font&gt;" style="rounded=0;whiteSpace=wrap;html=1;" parent="1" vertex="1">
          <mxGeometry x="184.55000000000004" y="5002.5" width="40" height="20" as="geometry" />
        </mxCell>
        <mxCell id="CcJlXv71uHXDPhzVcIDP-9" value="&lt;font style=&quot;font-size: 8px;&quot; face=&quot;Times New Roman&quot;&gt;extend msg&lt;/font&gt;" style="rounded=0;whiteSpace=wrap;html=1;" parent="1" vertex="1">
          <mxGeometry x="224.55000000000004" y="5002.5" width="60" height="20" as="geometry" />
        </mxCell>
        <mxCell id="CcJlXv71uHXDPhzVcIDP-10" value="&lt;font style=&quot;font-size: 9px;&quot; face=&quot;Times New Roman&quot;&gt;Req Ring Buffer&lt;/font&gt;" style="text;html=1;align=center;verticalAlign=middle;whiteSpace=wrap;rounded=0;" parent="1" vertex="1">
          <mxGeometry x="181.77000000000004" y="4952.5" width="90" height="30" as="geometry" />
        </mxCell>
        <mxCell id="CcJlXv71uHXDPhzVcIDP-12" value="&lt;font face=&quot;Times New Roman&quot;&gt;...&lt;/font&gt;" style="text;html=1;align=center;verticalAlign=middle;whiteSpace=wrap;rounded=0;" parent="1" vertex="1">
          <mxGeometry x="194.55000000000004" y="5022.5" width="60" height="20" as="geometry" />
        </mxCell>
        <mxCell id="CcJlXv71uHXDPhzVcIDP-13" value="&lt;font style=&quot;font-size: 9px;&quot; face=&quot;Times New Roman&quot;&gt;Resp Ring Buffer&lt;/font&gt;" style="text;html=1;align=center;verticalAlign=middle;whiteSpace=wrap;rounded=0;" parent="1" vertex="1">
          <mxGeometry x="362.22" y="4952.5" width="90" height="30" as="geometry" />
        </mxCell>
        <mxCell id="CcJlXv71uHXDPhzVcIDP-14" value="" style="rounded=0;whiteSpace=wrap;html=1;" parent="1" vertex="1">
          <mxGeometry x="345" y="5002.5" width="120" height="47.5" as="geometry" />
        </mxCell>
        <mxCell id="CcJlXv71uHXDPhzVcIDP-15" value="&lt;font face=&quot;Times New Roman&quot; style=&quot;font-size: 8px;&quot;&gt;reply_co status&lt;/font&gt;" style="rounded=0;whiteSpace=wrap;html=1;" parent="1" vertex="1">
          <mxGeometry x="345" y="4982.5" width="56.95" height="20" as="geometry" />
        </mxCell>
        <mxCell id="CcJlXv71uHXDPhzVcIDP-16" value="&lt;span style=&quot;font-family: &amp;quot;Times New Roman&amp;quot;;&quot;&gt;&lt;font style=&quot;font-size: 8px;&quot;&gt;count&lt;/font&gt;&lt;/span&gt;" style="rounded=0;whiteSpace=wrap;html=1;" parent="1" vertex="1">
          <mxGeometry x="401.95000000000005" y="4982.5" width="23.05" height="20" as="geometry" />
        </mxCell>
        <mxCell id="CcJlXv71uHXDPhzVcIDP-17" value="&lt;span style=&quot;font-family: &amp;quot;Times New Roman&amp;quot;;&quot;&gt;&lt;font style=&quot;font-size: 8px;&quot;&gt;start&lt;/font&gt;&lt;/span&gt;" style="rounded=0;whiteSpace=wrap;html=1;" parent="1" vertex="1">
          <mxGeometry x="425" y="4982.5" width="20" height="20" as="geometry" />
        </mxCell>
        <mxCell id="CcJlXv71uHXDPhzVcIDP-18" value="&lt;font face=&quot;Times New Roman&quot; style=&quot;font-size: 8px;&quot;&gt;end&lt;/font&gt;" style="rounded=0;whiteSpace=wrap;html=1;" parent="1" vertex="1">
          <mxGeometry x="445" y="4982.5" width="20" height="20" as="geometry" />
        </mxCell>
        <mxCell id="CcJlXv71uHXDPhzVcIDP-19" value="&lt;font face=&quot;Times New Roman&quot; style=&quot;font-size: 8px;&quot;&gt;cid&lt;/font&gt;" style="rounded=0;whiteSpace=wrap;html=1;" parent="1" vertex="1">
          <mxGeometry x="345" y="5002.5" width="20" height="20" as="geometry" />
        </mxCell>
        <mxCell id="CcJlXv71uHXDPhzVcIDP-20" value="&lt;font face=&quot;Times New Roman&quot; style=&quot;font-size: 8px;&quot;&gt;msg info&lt;/font&gt;" style="rounded=0;whiteSpace=wrap;html=1;" parent="1" vertex="1">
          <mxGeometry x="365" y="5002.5" width="40" height="20" as="geometry" />
        </mxCell>
        <mxCell id="CcJlXv71uHXDPhzVcIDP-21" value="&lt;font style=&quot;font-size: 8px;&quot; face=&quot;Times New Roman&quot;&gt;extend msg&lt;/font&gt;" style="rounded=0;whiteSpace=wrap;html=1;" parent="1" vertex="1">
          <mxGeometry x="405" y="5002.5" width="60" height="20" as="geometry" />
        </mxCell>
        <mxCell id="CcJlXv71uHXDPhzVcIDP-22" value="&lt;font face=&quot;Times New Roman&quot;&gt;...&lt;/font&gt;" style="text;html=1;align=center;verticalAlign=middle;whiteSpace=wrap;rounded=0;" parent="1" vertex="1">
          <mxGeometry x="375.00000000000006" y="5022.5" width="60" height="20" as="geometry" />
        </mxCell>
        <mxCell id="6XeGAVkCpYJ9S9aw5QfI-1" value="&lt;font style=&quot;font-size: 8px;&quot; face=&quot;Times New Roman&quot;&gt;IPCItem&lt;/font&gt;" style="text;html=1;align=center;verticalAlign=middle;resizable=0;points=[];autosize=1;strokeColor=none;fillColor=none;" vertex="1" parent="1">
          <mxGeometry x="289.77" y="5030" width="50" height="30" as="geometry" />
        </mxCell>
        <mxCell id="6XeGAVkCpYJ9S9aw5QfI-2" value="" style="endArrow=none;dashed=1;html=1;dashPattern=1 3;strokeWidth=2;rounded=0;entryX=0;entryY=0.75;entryDx=0;entryDy=0;" edge="1" parent="1" source="6XeGAVkCpYJ9S9aw5QfI-1" target="CcJlXv71uHXDPhzVcIDP-19">
          <mxGeometry width="50" height="50" relative="1" as="geometry">
            <mxPoint x="320" y="5010" as="sourcePoint" />
            <mxPoint x="370" y="4960" as="targetPoint" />
          </mxGeometry>
        </mxCell>
        <mxCell id="6XeGAVkCpYJ9S9aw5QfI-3" value="" style="endArrow=none;dashed=1;html=1;dashPattern=1 3;strokeWidth=2;rounded=0;entryX=1;entryY=0.75;entryDx=0;entryDy=0;" edge="1" parent="1" target="CcJlXv71uHXDPhzVcIDP-9">
          <mxGeometry width="50" height="50" relative="1" as="geometry">
            <mxPoint x="296" y="5034" as="sourcePoint" />
            <mxPoint x="370" y="4960" as="targetPoint" />
          </mxGeometry>
        </mxCell>
      </root>
    </mxGraphModel>
  </diagram>
</mxfile>
